<svg id="Warstwa_1" data-name="Warstwa 1" xmlns="http://www.w3.org/2000/svg" viewBox="0 0 985.54 415.14"><path d="M320.39,325.12q-10.27,0-26.33-1.28c-2.19-.18-4.38-.32-6.62-.47q-10.94,0-25.43.26c-11,.21-22.31.91-34,2.16-4.63.5-9.15,1.14-13.53,1.9A44.05,44.05,0,0,0,199,336c-6,5.16-9.42,11.14-10.3,18-.23,1.84-.41,3.56-.52,5.22q7.08-8.88,21.75-14a163,163,0,0,1,36.69-7.81q20.52-2.14,41-2.69c2.89,0,6.83-.29,11.87-.81s10.44-1,16.19-1.34a171.84,171.84,0,0,0-17.53,7.81,76.41,76.41,0,0,0-11.61,7.29A55.81,55.81,0,0,0,271.17,366q-5.66,10.75-13.77,29.1-9.18,19.47-18.87,43.45t-17.82,44.25q-8.09,20.2-12.39,29.39a722,722,0,0,1-37.5,73.11,365.71,365.71,0,0,1-46.14,62.85,149.24,149.24,0,0,1-32.63,27.5q-17.55,10.8-36.43,10.82-19.42,0-32.08-13T10.86,635.21c0-2.88-.91-4.31-2.72-4.31s-2.68,2.5-2.68,7.55a143.77,143.77,0,0,0,.82,15.37,56.24,56.24,0,0,0,3.5,14.84q7.56,19.43,22.66,29.14a57.9,57.9,0,0,0,31.81,9.71q18.9,0,39.66-10.53t34.27-25.08Q148.33,661,156.9,649.82a256.69,256.69,0,0,0,17.41-25.4q3.08-5.11,6-10.41l0,0c2.36-4.2,4.67-8.46,6.91-12.83,4.32-8.25,8.4-16.8,12.31-25.58.49-1.08,1-2.13,1.43-3.2q12.16-27.78,26.16-60.17,5.94-12.95,13.76-30.74t15.66-35.9q7.78-18.06,14.56-32.37c4.49-9.5,7.81-16.45,10-20.76a282.8,282.8,0,0,1,13.76-25.08,113.88,113.88,0,0,1,20-24.56,41.82,41.82,0,0,1,26.69-11.31c.72,0,2.24-1,4.6-3a13.24,13.24,0,0,0,3.15-3.44Q335.76,325.1,320.39,325.12Z" transform="translate(-5.46 -292.37)"/><path d="M407,661.2a161.74,161.74,0,0,1-18.46,20.32Q378.31,691,365.63,691c-4.82,0-10-1.57-15.64-4.67-.73-.4-1.48-.84-2.24-1.31q-9.72-5.94-20.88-20.12-5.61-7.44-12.31-18.08c-4.46-7.09-8.95-14.47-13.41-22.17a94.19,94.19,0,0,0,7.46-14.17A83.61,83.61,0,0,0,313.45,596c3.47.26,6.88.58,10.24.93s6.53.82,9.51,1.31a21.22,21.22,0,0,0,3.73.38h2.59c2.25,0,3.74-.87,4.5-2.62l6.7-10.06c.5-1,.5-1.61,0-1.87a1.23,1.23,0,0,0-1.48.38c-1.75,1.49-4.44,2.3-8,2.42s-7.15.2-10.62.2h-50q-6-11.94-11.37-23.3c-3.62-7.58-6.39-13.73-8.4-18.46A155.58,155.58,0,0,0,276,533.35a95.81,95.81,0,0,0,14-15.29c4-5.45,6-10.82,6-16q0-8.56-6.16-13.41A23.21,23.21,0,0,0,275,483.77c-6,0-11.87,2-17.7,6.15s-9.77,10.62-11.75,19.57c-.23,2.25-.55,4.55-.93,6.88a47.29,47.29,0,0,0-.56,6.91,82.91,82.91,0,0,0,4.11,25l-.37.38q-17.16,10.05-35.41,19.57c-4.4,2.27-8.69,4.75-12.83,7.37a166.17,166.17,0,0,0-20.74,15.55,92.48,92.48,0,0,0-16.94,20.12,46.82,46.82,0,0,0-7.26,25.37,38.94,38.94,0,0,0,2.24,13.21,38.42,38.42,0,0,0,7.82,12.86A47.34,47.34,0,0,0,182,674.61a59.93,59.93,0,0,0,23.68,4.49,93.07,93.07,0,0,0,26.83-4.28,121.09,121.09,0,0,0,29.46-14,126.55,126.55,0,0,0,15.28-11c4.23-3.58,8.31-7.38,12.31-11.37,3.47,6.24,7,12.31,10.61,18.28s7,11.29,10.24,16q12.33,17.14,23.68,24.78c7.58,5.11,15,7.64,22.19,7.64a39.22,39.22,0,0,0,20.33-5.83h0a54.49,54.49,0,0,0,6.85-4.78,117.76,117.76,0,0,0,11.9-11.29v0c.23-.58.5-1.1.76-1.63q5.51-9.89,12.65-21.84A3.2,3.2,0,0,0,407,661.2ZM255.85,512.84c.12-1.48.3-3,.56-4.46q2.63-10.8,8.75-15.48c4.11-3.1,8.13-4.67,12.13-4.67a14.84,14.84,0,0,1,9.3,3.18c2.74,2.13,4.11,5.28,4.11,9.51v1.86a6.93,6.93,0,0,1-.37,2.25c-1.75,6.44-5.55,12.86-11.38,19.19a115.53,115.53,0,0,1-19.57,16.94q-1.1-3.72-2.42-10.24a69.21,69.21,0,0,1-1.31-13.61C255.65,515.82,255.71,514.33,255.85,512.84ZM273,645.19a54.33,54.33,0,0,1-15.1,8.92,102.15,102.15,0,0,1-37.65,6.71,75.87,75.87,0,0,1-20.3-2.6,37.19,37.19,0,0,1-15.87-8.57,25.57,25.57,0,0,1-5.39-9.13,31.33,31.33,0,0,1-1.66-9.89A44.57,44.57,0,0,1,180.35,614l0,0a3.23,3.23,0,0,1,.18-.49,60.87,60.87,0,0,1,6.73-12.34c.53-.76,1.08-1.49,1.66-2.19a122.33,122.33,0,0,1,26.63-24.23Q231.46,563.92,246,555l3.35-2.22q3.38,8.57,6.91,17.15c2.37,5.71,4.64,11.28,6.89,16.77-1.75,0-3.62-.06-5.6-.21s-4-.17-5.95-.17a117.82,117.82,0,0,0-17.91,1.31c-5.71.87-10.18,2.65-13.41,5.39a12.88,12.88,0,0,0-5,8.58,37.38,37.38,0,0,0-.2,8.19c.26,2.25,1.8,5.72,4.66,10.44s5.16,8.72,6.91,11.93l3-2.24c-.26-.73-.82-2.43-1.69-5a21.16,21.16,0,0,1-1.29-6.53c-.52-6.45,1.55-11.44,6.13-14.91A43.57,43.57,0,0,1,249.32,596a99.15,99.15,0,0,1,17.15-2.6q6,12.3,11.2,22.37t8.57,16.39A103.53,103.53,0,0,1,273,645.19Zm24-27.59c-1.72-3-3.67-6.59-5.77-10.82s-4.52-8.69-7.26-13.42c4.23.24,8.31.5,12.3.73s7.94.64,11.93,1.14c-1.25,3.24-2.86,6.88-4.84,11A113.94,113.94,0,0,1,297,617.6Z" transform="translate(-5.46 -292.37)"/><path d="M983.62,298.79c-4.93-4.29-13.62-6.42-26-6.42q-20,0-42.08,9.3a257.59,257.59,0,0,0-41.77,22.17A338.27,338.27,0,0,0,842,347,1096,1096,0,0,0,732.12,452.62q-50.08,55.56-89,106.94T578,648.22q5.77-20.57,8-48.18t4.84-58.76q2.53-31.15,7.38-61.68A266.7,266.7,0,0,1,614,421.8a138.74,138.74,0,0,1,30.82-47.22q10.9-10.93,31.15-21.84t38.23-10.91a37.39,37.39,0,0,1,5.46.32,47.46,47.46,0,0,1,4.81,1l3.85-7.08q-10.93-6.39-31.47-6.42a88.81,88.81,0,0,0-44.33,11.58A187.91,187.91,0,0,0,614,370.09q-18,17.32-34.06,34a1000,1000,0,0,0-73.55,87.7Q472.61,537.09,446,577.88t-47.86,70.34a722.43,722.43,0,0,0,18-80.29q7-42.39,8.34-72.58c0-3.85.08-8.35.32-13.51s.32-10.47.32-16a333.89,333.89,0,0,0-3.21-44.32,161.86,161.86,0,0,0-13.18-45.62,82.28,82.28,0,0,0-30.51-35.31c12.87,0,25.58.08,38.24.32s25.37.32,38.2.32l13.5-16.71H421.24q-25.73,0-48.5.32c-7.29.12-15.11.2-23.42.26q-13.56,0-28.93.06-10.27,0-26.33-1.28c-2.19-.18-4.38-.32-6.62-.47-8.66-.52-17.59-.82-26.8-.82a233.26,233.26,0,0,0-35,2.57,70.22,70.22,0,0,0-11.17,2.57A44.05,44.05,0,0,0,199,336c-6,5.16-9.42,11.14-10.3,18-.23,1.84-.41,3.56-.52,5.22a66.71,66.71,0,0,0-.12,11.49q.66,4.51,5.16,13.47c3,6,6.42,12.11,10.27,18.32s7.06,11.66,9.62,16.39l7.09-5.13c-.88-1.29-2.36-4.84-4.49-10.62a66.11,66.11,0,0,1-3.88-13.79c-.85-11.58,2.56-20.77,10.29-27.65S239.55,350,251.33,347A200.63,200.63,0,0,1,286,341.19c4.4-.35,8.46-.61,12.13-.82,5.78-.32,10.62-.46,14.55-.46h48.79q18.64,21.82,25.06,56.51a360.85,360.85,0,0,1,6.44,65.5c0,9-.23,17.47-.64,25.38s-1.08,14.9-1.93,20.88q-4.5,35.34-12.22,70.34t-16.71,70.34q-2.53,8.35-5.13,17.67t-5.77,18.29c-.15.44-.35,1-.59,1.54-.46,1.14-1.13,2.57-2,4.26-1.28,2.57-1.92,4.49-1.92,5.78-.44,3.41.4,5.65,2.56,6.73a18.46,18.46,0,0,0,8.34,1.61c1.29,0,4.49-.73,9.66-2.25q4.94-1.44,10-3.15h0a54.49,54.49,0,0,0,6.85-4.78,117.76,117.76,0,0,0,11.9-11.29v0c.23-.58.5-1.1.76-1.63q5.51-9.89,12.65-21.84c3-5,6.13-10.21,9.51-15.72q13.17-21.52,27.62-44.33T474.55,556q14.13-20.87,25.69-35,34-42.39,57.8-72.27t36.63-37.59a172.35,172.35,0,0,0-23.77,53.34,432.93,432.93,0,0,0-11.25,61.33q-3.51,31.8-7.06,63.28a395.59,395.59,0,0,1-11.23,59.73q-2.58,8.35-5.16,17.67t-5.77,18.29a49.76,49.76,0,0,1-2.57,5.8c-1.28,2.57-1.93,4.49-1.93,5.78-.43,3.41.44,5.65,2.57,6.73a18.68,18.68,0,0,0,8.37,1.61c1.28,0,3.94-.73,8-2.25s8.23-3.21,12.51-5.13,6.86-3.33,7.73-4.17a19.65,19.65,0,0,0,2.25-5.45,32.3,32.3,0,0,1,2.24-6.13A665.71,665.71,0,0,1,610.07,620q21.82-29.54,45-58.47Q699.4,505,748.83,453.26a1047.3,1047.3,0,0,1,103.41-94.75q27.6-22.49,48.82-35T940.26,311h3.85a12.68,12.68,0,0,1,3.85.64q10.93,1.31,14.78,9.65a44,44,0,0,1,3.85,18.64A71.85,71.85,0,0,1,965,355c-1.08,4.93-2,9.1-2.89,12.54-.44,1.72,1,2.37,4.49,1.93s5.34-1.28,5.77-2.57c2.57-6.44,6.33-14.55,11.26-24.41s7.38-18.84,7.38-27A21.16,21.16,0,0,0,983.62,298.79Z" transform="translate(-5.46 -292.37)"/></svg>